# 3ds Max Wavefront OBJ Exporter v0.97b - (c)2007 guruware
# File Created: 06.08.2016 21:32:58

#
# object Bedroom
#

v  69.655 -96.055 17.386
v  74.104 -96.055 17.386
v  74.104 -91.446 18.977
v  69.655 -91.446 17.386
v  119.262 -96.055 17.386
v  119.262 -91.446 18.977
v  123.710 -96.055 17.386
v  123.710 -91.446 17.386
v  74.104 -36.665 18.977
v  69.655 -36.665 17.386
v  119.262 -36.665 18.977
v  123.710 -36.665 17.386
v  69.655 -36.665 30.281
v  74.104 -36.665 32.436
v  74.104 -32.055 32.436
v  69.655 -32.055 30.281
v  119.262 -36.665 32.436
v  119.262 -32.055 32.436
v  123.710 -36.665 30.281
v  123.710 -32.055 30.281
v  69.655 -96.055 5.795
v  74.104 -96.055 5.795
v  119.262 -96.055 5.795
v  123.710 -96.055 5.795
v  123.710 -91.446 5.795
v  123.710 -36.665 5.795
v  123.710 -32.055 5.795
v  123.710 -32.055 17.386
v  69.655 -32.055 5.795
v  69.655 -36.665 5.795
v  69.655 -32.055 17.386
v  69.655 -91.446 5.795
v  69.655 -91.446 -0.365
v  69.655 -96.055 -0.365
v  74.104 -91.446 5.795
v  74.104 -91.446 -0.365
v  74.104 -96.055 -0.365
v  119.262 -91.446 5.795
v  119.262 -91.446 -0.365
v  119.262 -96.055 -0.365
v  123.710 -91.446 -0.365
v  123.710 -96.055 -0.365
v  74.104 -36.665 5.795
v  69.655 -36.665 -0.365
v  74.104 -36.665 -0.365
v  69.655 -32.055 -0.365
v  119.262 -36.665 5.795
v  119.262 -36.665 -0.365
v  123.710 -36.665 -0.365
v  123.710 -32.055 -0.365
v  79.784 -44.917 22.008
v  91.669 -44.917 22.008
v  91.669 -38.914 22.008
v  79.784 -38.914 22.008
v  76.577 -47.040 18.562
v  94.876 -47.040 18.562
v  94.876 -47.040 20.913
v  76.577 -47.040 20.913
v  94.876 -36.791 18.562
v  94.876 -36.791 20.913
v  76.577 -36.791 18.562
v  76.577 -36.791 20.913
v  100.691 -44.917 22.008
v  112.576 -44.917 22.008
v  112.576 -38.914 22.008
v  100.691 -38.914 22.008
v  97.484 -47.040 18.562
v  115.783 -47.040 18.562
v  115.783 -47.040 20.913
v  97.484 -47.040 20.913
v  115.783 -36.791 18.562
v  115.783 -36.791 20.913
v  97.484 -36.791 18.562
v  97.484 -36.791 20.913
v  222.179 -63.830 60.000
v  194.179 -63.830 60.000
v  194.179 -93.830 60.000
v  222.179 -93.830 60.000
v  222.179 -33.830 -0.000
v  194.179 -33.830 -0.000
v  194.179 -33.830 60.000
v  222.179 -33.830 60.000
v  194.179 -93.830 -0.000
v  222.179 -93.830 -0.000
v  194.179 -63.830 -0.000
v  194.179 -62.830 1.000
v  194.179 -34.830 1.000
v  194.179 -62.830 59.000
v  194.179 -34.830 59.000
v  65.869 -189.840 27.344
v  68.943 -189.840 27.344
v  68.943 -186.421 27.344
v  65.869 -186.421 27.344
v  123.137 -189.840 27.344
v  123.137 -186.421 27.344
v  126.211 -189.840 27.344
v  126.211 -186.421 27.344
v  68.943 -166.059 27.344
v  65.869 -166.059 27.344
v  123.137 -166.059 27.344
v  126.211 -166.059 27.344
v  68.943 -162.641 27.344
v  65.869 -162.641 27.344
v  123.137 -162.641 27.344
v  126.211 -162.641 27.344
v  126.211 -189.840 1.528
v  126.211 -186.421 1.528
v  126.211 -166.059 1.528
v  126.211 -162.641 1.528
v  123.137 -162.641 1.528
v  68.943 -162.641 1.528
v  65.869 -162.641 1.528
v  65.869 -166.059 1.528
v  65.869 -186.421 1.528
v  65.869 -189.840 1.528
v  65.869 -186.421 -1.882
v  65.869 -189.840 -1.882
v  68.943 -186.421 1.528
v  68.943 -186.421 -1.882
v  123.137 -186.421 1.528
v  126.211 -186.421 -1.882
v  123.137 -186.421 -1.882
v  126.211 -189.840 -1.882
v  65.869 -162.641 -1.882
v  65.869 -166.059 -1.882
v  68.943 -162.641 -1.882
v  68.943 -166.059 1.528
v  68.943 -166.059 -1.882
v  123.137 -166.059 1.528
v  123.137 -162.641 -1.882
v  123.137 -166.059 -1.882
v  126.211 -162.641 -1.882
v  126.211 -166.059 -1.882
v  85.806 -181.600 29.163
v  104.614 -181.600 29.163
v  104.614 -172.933 29.163
v  85.806 -172.933 29.163
v  84.024 -183.227 27.309
v  106.395 -183.227 27.309
v  106.395 -171.709 27.309
v  84.024 -171.709 27.309
v  93.075 -178.436 28.953
v  97.075 -178.436 28.953
v  97.075 -178.436 30.953
v  93.075 -178.436 30.953
v  97.075 -176.436 28.953
v  97.075 -176.436 30.953
v  93.075 -176.436 28.953
v  93.075 -176.436 30.953
v  76.688 -179.246 30.842
v  76.688 -175.984 30.842
v  114.818 -175.984 30.842
v  114.818 -179.246 30.842
v  76.688 -179.246 55.945
v  114.818 -179.246 55.945
v  114.818 -175.984 57.419
v  76.688 -175.984 57.419
v  36.014 -59.694 19.088
v  38.809 -59.694 19.088
v  38.809 -57.109 19.088
v  36.014 -57.109 19.088
v  57.218 -59.694 19.088
v  57.218 -57.109 19.088
v  60.014 -59.694 19.088
v  60.014 -57.109 19.088
v  38.809 -38.280 19.088
v  36.014 -38.280 19.088
v  57.218 -38.280 19.088
v  60.014 -38.280 19.088
v  38.809 -35.694 19.088
v  36.014 -35.694 19.088
v  57.218 -35.694 19.088
v  60.014 -35.694 19.088
v  36.014 -59.694 8.419
v  38.809 -59.694 8.419
v  57.218 -59.694 8.419
v  60.014 -59.694 8.419
v  60.014 -57.109 8.419
v  60.014 -38.280 8.419
v  60.014 -35.694 8.419
v  36.014 -57.109 8.419
v  36.014 -57.109 -0.443
v  36.014 -59.694 -0.443
v  38.809 -57.109 8.419
v  38.809 -59.694 -0.443
v  38.809 -57.109 -0.443
v  57.218 -57.109 8.419
v  57.218 -57.109 -0.443
v  57.218 -59.694 -0.443
v  60.014 -59.694 -0.443
v  60.014 -57.109 -0.443
v  38.809 -38.280 8.419
v  36.014 -38.280 8.419
v  36.014 -38.280 -0.443
v  38.809 -38.280 -0.443
v  38.809 -35.694 8.419
v  38.809 -35.694 -0.443
v  57.218 -38.280 8.419
v  57.218 -38.280 -0.443
v  60.014 -38.280 -0.443
v  57.218 -35.694 8.419
v  57.218 -35.694 -0.443
v  60.014 -35.694 -0.443
v  53.087 -59.166 21.066
v  60.158 -52.095 21.066
v  54.501 -46.438 21.066
v  47.430 -53.509 21.066
v  53.087 -59.166 19.066
v  60.158 -52.095 19.066
v  54.501 -46.438 19.066
v  47.430 -53.509 19.066
v  46.271 -44.079 19.074
v  46.057 -44.292 20.529
v  46.562 -45.511 20.529
v  46.864 -45.511 19.074
v  44.839 -43.486 19.074
v  44.839 -43.788 20.529
v  43.407 -44.079 19.074
v  43.620 -44.292 20.529
v  42.814 -45.511 19.074
v  43.115 -45.511 20.529
v  43.407 -46.943 19.074
v  43.620 -46.730 20.529
v  44.839 -47.536 19.074
v  44.839 -47.234 20.529
v  46.271 -46.943 19.074
v  46.057 -46.730 20.529
v  45.530 -44.820 26.185
v  45.816 -45.511 26.185
v  45.816 -45.511 21.297
v  45.530 -44.820 21.297
v  44.839 -44.534 26.185
v  44.839 -44.534 21.297
v  44.148 -44.820 26.185
v  44.148 -44.820 21.297
v  43.862 -45.511 26.185
v  43.862 -45.511 21.297
v  44.148 -46.202 26.185
v  44.148 -46.202 21.297
v  44.839 -46.488 26.185
v  44.839 -46.488 21.297
v  45.530 -46.202 26.185
v  45.530 -46.202 21.297
v  46.253 -44.097 31.074
v  46.839 -45.511 31.074
v  49.884 -45.511 24.914
v  48.407 -41.943 24.914
v  43.425 -46.925 31.074
v  42.839 -45.511 31.074
v  39.793 -45.511 24.914
v  41.271 -49.079 24.914
v  44.839 -47.511 31.074
v  44.839 -50.557 24.914
v  46.253 -46.925 31.074
v  48.407 -49.079 24.914
v  47.182 -43.168 25.876
v  48.153 -45.511 25.876
v  44.839 -43.511 31.074
v  44.839 -42.197 25.876
v  43.425 -44.097 31.074
v  42.496 -43.168 25.876
v  41.525 -45.511 25.876
v  42.496 -47.854 25.876
# 263 vertices

vn -0.170 -0.171 0.971
vn 0.000 -0.326 0.945
vn -0.130 -0.124 0.984
vn -0.337 0.000 0.942
vn 0.084 -0.245 0.966
vn 0.166 -0.160 0.973
vn 0.000 0.000 1.000
vn 0.257 -0.085 0.963
vn -0.171 0.000 0.985
vn 0.171 0.000 0.985
vn 0.337 0.000 0.942
vn -0.436 0.000 0.900
vn -0.224 0.000 0.975
vn 0.224 0.000 0.975
vn 0.436 0.000 0.900
vn 0.000 -1.000 0.000
vn 1.000 0.000 0.000
vn -1.000 0.000 0.000
vn 0.000 1.000 0.000
vn 0.000 -0.459 0.889
vn 0.323 0.000 0.946
vn 0.000 0.459 0.889
vn -0.323 0.000 0.946
vn -0.000 -1.000 0.000
vn 0.000 -0.752 0.660
vn 0.721 0.000 0.693
vn 0.000 0.835 0.551
vn -0.721 0.000 0.693
vn 0.000 0.000 -1.000
vn 0.000 -0.412 0.911
vn 0.707 -0.707 0.000
vn 0.707 0.707 0.000
vn -0.707 0.707 0.000
vn -0.707 -0.707 0.000
vn 0.692 0.692 0.203
vn 0.979 -0.000 0.203
vn 0.000 0.979 0.203
vn -0.692 0.692 0.203
vn -0.979 0.000 0.203
vn -0.692 -0.692 0.203
vn -0.000 -0.979 0.203
vn 0.692 -0.692 0.203
vn 1.000 -0.000 0.000
vn -0.000 1.000 0.000
vn -1.000 -0.000 0.000
vn 0.687 0.285 0.668
vn 0.687 -0.285 0.668
vn 0.285 -0.687 0.668
vn -0.285 -0.687 0.668
vn -0.687 -0.285 0.668
vn -0.687 0.285 0.668
vn -0.285 0.687 0.668
vn 0.285 0.687 0.668
vn 0.840 0.348 0.416
vn 0.896 -0.000 0.443
vn 0.896 0.000 0.443
vn -0.634 -0.634 0.443
vn -0.840 -0.348 0.416
vn -0.000 -0.896 0.443
vn 0.000 -0.896 0.443
vn 0.634 -0.634 0.443
vn -0.900 -0.373 -0.227
vn -0.373 -0.900 -0.227
vn 0.373 -0.900 -0.227
vn 0.900 -0.373 -0.227
vn 0.900 0.373 -0.227
# 66 vertex normals

vt 0.074 0.673 0.000
vt 0.098 0.673 0.000
vt 0.099 0.699 0.000
vt 0.074 0.699 0.000
vt 0.340 0.673 0.000
vt 0.340 0.699 0.000
vt 0.364 0.673 0.000
vt 0.364 0.699 0.000
vt 0.099 0.991 0.000
vt 0.074 0.991 0.000
vt 0.340 0.991 0.000
vt 0.364 0.991 0.000
vt 0.102 0.539 0.000
vt 0.133 0.539 0.000
vt 0.133 0.570 0.000
vt 0.102 0.570 0.000
vt 0.371 0.539 0.000
vt 0.371 0.570 0.000
vt 0.403 0.539 0.000
vt 0.403 0.570 0.000
vt 0.074 0.611 0.000
vt 0.099 0.611 0.000
vt 0.340 0.611 0.000
vt 0.364 0.611 0.000
vt 0.427 0.673 0.000
vt 0.427 0.699 0.000
vt 0.427 0.991 0.000
vt 0.040 0.478 0.000
vt 0.067 0.478 0.000
vt 0.067 0.534 0.000
vt 0.040 0.534 0.000
vt 0.012 0.991 0.000
vt 0.012 0.699 0.000
vt 0.012 0.673 0.000
vt 0.440 0.487 0.000
vt 0.417 0.487 0.000
vt 0.417 0.456 0.000
vt 0.440 0.456 0.000
vt 0.019 0.478 0.000
vt 0.040 0.445 0.000
vt 0.019 0.445 0.000
vt 0.067 0.445 0.000
vt 0.019 0.542 0.000
vt 0.019 0.607 0.000
vt 0.040 0.597 0.000
vt 0.133 0.471 0.000
vt 0.371 0.471 0.000
vt 0.067 0.597 0.000
vt 0.470 0.556 0.000
vt 0.538 0.556 0.000
vt 0.538 0.590 0.000
vt 0.470 0.590 0.000
vt 0.451 0.530 0.000
vt 0.556 0.530 0.000
vt 0.556 0.543 0.000
vt 0.451 0.543 0.000
vt 0.570 0.543 0.000
vt 0.570 0.602 0.000
vt 0.556 0.602 0.000
vt 0.438 0.602 0.000
vt 0.438 0.543 0.000
vt 0.451 0.602 0.000
vt 0.526 0.658 0.000
vt 0.526 0.736 0.000
vt 0.442 0.736 0.000
vt 0.442 0.658 0.000
vt 0.848 0.293 0.000
vt 0.973 0.293 0.000
vt 0.973 0.555 0.000
vt 0.848 0.555 0.000
vt 0.978 0.020 0.000
vt 0.978 0.279 0.000
vt 0.848 0.279 0.000
vt 0.848 0.020 0.000
vt 0.718 0.020 0.000
vt 0.836 0.031 0.000
vt 0.730 0.031 0.000
vt 0.836 0.266 0.000
vt 0.718 0.279 0.000
vt 0.730 0.266 0.000
vt 0.031 0.265 0.000
vt 0.043 0.265 0.000
vt 0.043 0.282 0.000
vt 0.031 0.282 0.000
vt 0.351 0.265 0.000
vt 0.351 0.282 0.000
vt 0.364 0.265 0.000
vt 0.364 0.282 0.000
vt 0.043 0.399 0.000
vt 0.031 0.399 0.000
vt 0.351 0.399 0.000
vt 0.364 0.399 0.000
vt 0.043 0.415 0.000
vt 0.031 0.415 0.000
vt 0.351 0.415 0.000
vt 0.364 0.415 0.000
vt 0.641 0.325 0.000
vt 0.664 0.325 0.000
vt 0.664 0.492 0.000
vt 0.641 0.492 0.000
vt 0.793 0.325 0.000
vt 0.793 0.492 0.000
vt 0.817 0.325 0.000
vt 0.817 0.492 0.000
vt 0.019 0.052 0.000
vt 0.047 0.052 0.000
vt 0.047 0.227 0.000
vt 0.019 0.227 0.000
vt 0.403 0.052 0.000
vt 0.403 0.227 0.000
vt 0.429 0.052 0.000
vt 0.429 0.227 0.000
vt 0.793 0.303 0.000
vt 0.817 0.303 0.000
vt 0.641 0.303 0.000
vt 0.664 0.303 0.000
vt 0.403 0.030 0.000
vt 0.429 0.030 0.000
vt 0.019 0.029 0.000
vt 0.047 0.029 0.000
vt 0.477 0.067 0.000
vt 0.593 0.067 0.000
vt 0.593 0.121 0.000
vt 0.477 0.121 0.000
vt 0.466 0.052 0.000
vt 0.604 0.052 0.000
vt 0.609 0.057 0.000
vt 0.609 0.128 0.000
vt 0.604 0.135 0.000
vt 0.466 0.135 0.000
vt 0.461 0.128 0.000
vt 0.461 0.057 0.000
vt 0.533 0.160 0.000
vt 0.628 0.160 0.000
vt 0.628 0.208 0.000
vt 0.533 0.208 0.000
vt 0.457 0.161 0.000
vt 0.504 0.161 0.000
vt 0.504 0.208 0.000
vt 0.457 0.208 0.000
vt 0.988 0.752 0.000
vt 0.988 0.774 0.000
vt 0.732 0.774 0.000
vt 0.732 0.752 0.000
vt 0.732 0.751 0.000
vt 0.988 0.751 0.000
vt 0.988 0.775 0.000
vt 0.732 0.775 0.000
vt 0.735 0.570 0.000
vt 0.990 0.570 0.000
vt 0.990 0.738 0.000
vt 0.735 0.738 0.000
vt 0.697 0.578 0.000
vt 0.721 0.578 0.000
vt 0.721 0.775 0.000
vt 0.697 0.764 0.000
vt 0.710 0.791 0.000
vt 0.964 0.791 0.000
vt 0.964 0.968 0.000
vt 0.710 0.968 0.000
vt 0.437 0.871 0.000
vt 0.454 0.871 0.000
vt 0.454 0.887 0.000
vt 0.437 0.887 0.000
vt 0.539 0.871 0.000
vt 0.539 0.887 0.000
vt 0.555 0.871 0.000
vt 0.555 0.887 0.000
vt 0.454 0.973 0.000
vt 0.437 0.973 0.000
vt 0.539 0.973 0.000
vt 0.555 0.973 0.000
vt 0.454 0.986 0.000
vt 0.437 0.986 0.000
vt 0.539 0.986 0.000
vt 0.555 0.986 0.000
vt 0.437 0.809 0.000
vt 0.457 0.809 0.000
vt 0.457 0.861 0.000
vt 0.437 0.861 0.000
vt 0.543 0.809 0.000
vt 0.543 0.861 0.000
vt 0.563 0.809 0.000
vt 0.563 0.861 0.000
vt 0.437 0.761 0.000
vt 0.457 0.761 0.000
vt 0.543 0.761 0.000
vt 0.563 0.761 0.000
vt 0.582 0.892 0.000
vt 0.649 0.892 0.000
vt 0.649 0.945 0.000
vt 0.582 0.945 0.000
vt 0.582 0.879 0.000
vt 0.649 0.879 0.000
vt 0.662 0.892 0.000
vt 0.662 0.945 0.000
vt 0.649 0.959 0.000
vt 0.582 0.959 0.000
vt 0.569 0.945 0.000
vt 0.569 0.892 0.000
vt 0.660 0.648 1.000
vt 0.649 0.663 1.000
vt 0.635 0.658 1.000
vt 0.642 0.640 1.000
vt 0.675 0.660 1.000
vt 0.662 0.674 1.000
vt 0.552 0.648 1.000
vt 0.562 0.663 1.000
vt 0.550 0.674 1.000
vt 0.536 0.660 1.000
vt 0.569 0.640 1.000
vt 0.576 0.658 1.000
vt 0.588 0.636 1.000
vt 0.591 0.655 1.000
vt 0.606 0.634 1.000
vt 0.606 0.654 1.000
vt 0.624 0.636 1.000
vt 0.621 0.655 1.000
vt 0.630 0.735 1.000
vt 0.622 0.732 1.000
vt 0.631 0.671 1.000
vt 0.641 0.674 1.000
vt 0.639 0.738 1.000
vt 0.650 0.679 1.000
vt 0.582 0.735 1.000
vt 0.573 0.738 1.000
vt 0.561 0.679 1.000
vt 0.570 0.674 1.000
vt 0.590 0.732 1.000
vt 0.581 0.671 1.000
vt 0.598 0.731 1.000
vt 0.593 0.668 1.000
vt 0.606 0.730 1.000
vt 0.606 0.668 1.000
vt 0.614 0.731 1.000
vt 0.618 0.668 1.000
vt 0.538 0.392 1.000
vt 0.525 0.381 1.000
vt 0.561 0.318 1.000
vt 0.592 0.344 1.000
vt 0.478 0.381 1.000
vt 0.465 0.392 1.000
vt 0.411 0.344 1.000
vt 0.442 0.318 1.000
vt 0.493 0.376 1.000
vt 0.481 0.304 1.000
vt 0.510 0.376 1.000
vt 0.522 0.304 1.000
vt 0.646 0.802 0.250
vt 0.636 0.799 0.250
vt 0.645 0.763 0.250
vt 0.662 0.769 0.250
vt 0.626 0.798 0.250
vt 0.628 0.760 0.250
vt 0.615 0.798 0.250
vt 0.610 0.761 0.250
vt 0.605 0.800 0.250
vt 0.593 0.765 0.250
vt 0.595 0.805 0.250
vt 0.577 0.772 0.250
# 260 texture coords

g Bedroom
f 1/1/1 2/2/2 3/3/3 
f 3/3/3 4/4/4 1/1/1 
f 2/2/2 5/5/5 6/6/6 
f 6/6/6 3/3/3 2/2/2 
f 5/5/5 7/7/7 8/8/8 
f 8/8/8 6/6/6 5/5/5 
f 4/4/4 3/3/3 9/9/9 
f 9/9/9 10/10/4 4/4/4 
f 3/3/3 6/6/6 11/11/10 
f 11/11/10 9/9/9 3/3/3 
f 6/6/6 8/8/8 12/12/11 
f 12/12/11 11/11/10 6/6/6 
f 13/13/12 14/14/13 15/15/13 
f 15/15/13 16/16/12 13/13/12 
f 14/14/13 17/17/14 18/18/14 
f 18/18/14 15/15/13 14/14/13 
f 17/17/14 19/19/15 20/20/15 
f 20/20/15 18/18/14 17/17/14 
f 21/21/16 22/22/16 2/2/16 
f 2/2/16 1/1/16 21/21/16 
f 22/22/16 23/23/16 5/5/16 
f 5/5/16 2/2/16 22/22/16 
f 23/23/16 24/24/16 7/7/16 
f 7/7/16 5/5/16 23/23/16 
f 24/25/17 25/26/17 8/8/17 
f 8/8/17 7/7/17 24/25/17 
f 25/26/17 26/27/17 12/12/17 
f 12/12/17 8/8/17 25/26/17 
f 26/28/17 27/29/17 28/30/17 
f 28/30/17 12/31/17 26/28/17 
f 29/29/18 30/28/18 10/31/18 
f 10/31/18 31/30/18 29/29/18 
f 30/32/18 32/33/18 4/4/18 
f 4/4/18 10/10/18 30/32/18 
f 32/33/18 21/34/18 1/1/18 
f 1/1/18 4/4/18 32/33/18 
f 21/35/18 32/36/18 33/37/18 
f 33/37/18 34/38/18 21/35/18 
f 32/35/19 35/36/19 36/37/19 
f 36/37/19 33/38/19 32/35/19 
f 35/35/17 22/36/17 37/37/17 
f 37/37/17 36/38/17 35/35/17 
f 22/35/16 21/36/16 34/37/16 
f 34/37/16 37/38/16 22/35/16 
f 23/35/18 38/36/18 39/37/18 
f 39/37/18 40/38/18 23/35/18 
f 38/35/19 25/36/19 41/37/19 
f 41/37/19 39/38/19 38/35/19 
f 25/35/17 24/36/17 42/37/17 
f 42/37/17 41/38/17 25/35/17 
f 24/35/16 23/36/16 40/37/16 
f 40/37/16 42/38/16 24/35/16 
f 43/39/16 30/28/16 44/40/16 
f 44/40/16 45/41/16 43/39/16 
f 30/28/18 29/29/18 46/42/18 
f 46/42/18 44/40/18 30/28/18 
f 26/28/16 47/39/16 48/41/16 
f 48/41/16 49/40/16 26/28/16 
f 27/29/17 26/28/17 49/40/17 
f 49/40/17 50/42/17 27/29/17 
f 10/31/16 9/43/16 14/44/16 
f 14/44/16 13/45/16 10/31/16 
f 9/46/16 11/47/16 17/17/16 
f 17/17/16 14/14/16 9/46/16 
f 11/43/16 12/31/16 19/45/16 
f 19/45/16 17/44/16 11/43/16 
f 12/31/17 28/30/17 20/48/17 
f 20/48/17 19/45/17 12/31/17 
f 31/30/18 10/31/18 13/45/18 
f 13/45/18 16/48/18 31/30/18 
f 51/49/7 52/50/7 53/51/7 
f 53/51/7 54/52/7 51/49/7 
f 55/53/16 56/54/16 57/55/16 
f 57/55/16 58/56/16 55/53/16 
f 56/57/17 59/58/17 60/59/17 
f 60/59/17 57/55/17 56/57/17 
f 61/60/18 55/61/18 58/56/18 
f 58/56/18 62/62/18 61/60/18 
f 58/56/20 57/55/20 52/50/20 
f 52/50/20 51/49/20 58/56/20 
f 57/55/21 60/59/21 53/51/21 
f 53/51/21 52/50/21 57/55/21 
f 60/59/22 62/62/22 54/52/22 
f 54/52/22 53/51/22 60/59/22 
f 62/62/23 58/56/23 51/49/23 
f 51/49/23 54/52/23 62/62/23 
f 63/49/7 64/50/7 65/51/7 
f 65/51/7 66/52/7 63/49/7 
f 67/53/16 68/54/16 69/55/16 
f 69/55/16 70/56/16 67/53/16 
f 68/57/17 71/58/17 72/59/17 
f 72/59/17 69/55/17 68/57/17 
f 73/60/18 67/61/18 70/56/18 
f 70/56/18 74/62/18 73/60/18 
f 70/56/20 69/55/20 64/50/20 
f 64/50/20 63/49/20 70/56/20 
f 69/55/21 72/59/21 65/51/21 
f 65/51/21 64/50/21 69/55/21 
f 72/59/22 74/62/22 66/52/22 
f 66/52/22 65/51/22 72/59/22 
f 74/62/23 70/56/23 63/49/23 
f 63/49/23 66/52/23 74/62/23 
f 75/63/7 76/64/7 77/65/7 
f 77/65/7 78/66/7 75/63/7 
f 79/67/19 80/68/19 81/69/19 
f 81/69/19 82/70/19 79/67/19 
f 83/67/24 84/68/24 78/69/24 
f 78/69/24 77/70/24 83/67/24 
f 82/63/7 81/64/7 76/65/7 
f 76/65/7 75/66/7 82/63/7 
f 83/71/18 77/72/18 76/73/18 
f 76/73/18 85/74/18 83/71/18 
f 80/75/18 85/74/18 86/76/18 
f 86/76/18 87/77/18 80/75/18 
f 85/74/18 76/73/18 88/78/18 
f 88/78/18 86/76/18 85/74/18 
f 76/73/18 81/79/18 89/80/18 
f 89/80/18 88/78/18 76/73/18 
f 81/79/18 80/75/18 87/77/18 
f 87/77/18 89/80/18 81/79/18 
f 90/81/7 91/82/7 92/83/7 
f 92/83/7 93/84/7 90/81/7 
f 91/82/7 94/85/7 95/86/7 
f 95/86/7 92/83/7 91/82/7 
f 94/85/7 96/87/7 97/88/7 
f 97/88/7 95/86/7 94/85/7 
f 93/84/7 92/83/7 98/89/7 
f 98/89/7 99/90/7 93/84/7 
f 92/83/7 95/86/7 100/91/7 
f 100/91/7 98/89/7 92/83/7 
f 95/86/7 97/88/7 101/92/7 
f 101/92/7 100/91/7 95/86/7 
f 99/90/7 98/89/7 102/93/7 
f 102/93/7 103/94/7 99/90/7 
f 98/89/7 100/91/7 104/95/7 
f 104/95/7 102/93/7 98/89/7 
f 100/91/7 101/92/7 105/96/7 
f 105/96/7 104/95/7 100/91/7 
f 106/97/17 107/98/17 97/99/17 
f 97/99/17 96/100/17 106/97/17 
f 107/98/17 108/101/17 101/102/17 
f 101/102/17 97/99/17 107/98/17 
f 108/101/17 109/103/17 105/104/17 
f 105/104/17 101/102/17 108/101/17 
f 109/105/19 110/106/19 104/107/19 
f 104/107/19 105/108/19 109/105/19 
f 110/106/19 111/109/19 102/110/19 
f 102/110/19 104/107/19 110/106/19 
f 111/109/19 112/111/19 103/112/19 
f 103/112/19 102/110/19 111/109/19 
f 112/97/18 113/98/18 99/99/18 
f 99/99/18 103/100/18 112/97/18 
f 113/98/18 114/101/18 93/102/18 
f 93/102/18 99/99/18 113/98/18 
f 114/101/18 115/103/18 90/104/18 
f 90/104/18 93/102/18 114/101/18 
f 115/103/18 114/101/18 116/113/18 
f 116/113/18 117/114/18 115/103/18 
f 114/103/19 118/101/19 119/113/19 
f 119/113/19 116/114/19 114/103/19 
f 120/98/19 107/97/19 121/115/19 
f 121/115/19 122/116/19 120/98/19 
f 107/98/17 106/97/17 123/115/17 
f 123/115/17 121/116/17 107/98/17 
f 113/98/18 112/97/18 124/115/18 
f 124/115/18 125/116/18 113/98/18 
f 112/111/19 111/109/19 126/117/19 
f 126/117/19 124/118/19 112/111/19 
f 111/103/17 127/101/17 128/113/17 
f 128/113/17 126/114/17 111/103/17 
f 129/97/18 110/98/18 130/116/18 
f 130/116/18 131/115/18 129/97/18 
f 110/106/19 109/105/19 132/119/19 
f 132/119/19 130/120/19 110/106/19 
f 109/103/17 108/101/17 133/113/17 
f 133/113/17 132/114/17 109/103/17 
f 134/121/7 135/122/7 136/123/7 
f 136/123/7 137/124/7 134/121/7 
f 138/125/25 139/126/25 135/122/25 
f 135/122/25 134/121/25 138/125/25 
f 139/127/26 140/128/26 136/123/26 
f 136/123/26 135/122/26 139/127/26 
f 140/129/27 141/130/27 137/124/27 
f 137/124/27 136/123/27 140/129/27 
f 141/131/28 138/132/28 134/121/28 
f 134/121/28 137/124/28 141/131/28 
f 142/133/16 143/134/16 144/135/16 
f 144/135/16 145/136/16 142/133/16 
f 143/137/17 146/138/17 147/139/17 
f 147/139/17 144/140/17 143/137/17 
f 146/133/19 148/134/19 149/135/19 
f 149/135/19 147/136/19 146/133/19 
f 148/137/18 142/138/18 145/139/18 
f 145/139/18 149/140/18 148/137/18 
f 150/141/29 151/142/29 152/143/29 
f 152/143/29 153/144/29 150/141/29 
f 154/145/30 155/146/30 156/147/30 
f 156/147/30 157/148/30 154/145/30 
f 150/149/16 153/150/16 155/151/16 
f 155/151/16 154/152/16 150/149/16 
f 153/153/17 152/154/17 156/155/17 
f 156/155/17 155/156/17 153/153/17 
f 152/157/19 151/158/19 157/159/19 
f 157/159/19 156/160/19 152/157/19 
f 151/154/18 150/153/18 154/156/18 
f 154/156/18 157/155/18 151/154/18 
f 158/161/7 159/162/7 160/163/7 
f 160/163/7 161/164/7 158/161/7 
f 159/162/7 162/165/7 163/166/7 
f 163/166/7 160/163/7 159/162/7 
f 162/165/7 164/167/7 165/168/7 
f 165/168/7 163/166/7 162/165/7 
f 161/164/7 160/163/7 166/169/7 
f 166/169/7 167/170/7 161/164/7 
f 160/163/7 163/166/7 168/171/7 
f 168/171/7 166/169/7 160/163/7 
f 163/166/7 165/168/7 169/172/7 
f 169/172/7 168/171/7 163/166/7 
f 167/170/7 166/169/7 170/173/7 
f 170/173/7 171/174/7 167/170/7 
f 166/169/7 168/171/7 172/175/7 
f 172/175/7 170/173/7 166/169/7 
f 168/171/7 169/172/7 173/176/7 
f 173/176/7 172/175/7 168/171/7 
f 174/177/16 175/178/16 159/179/16 
f 159/179/16 158/180/16 174/177/16 
f 175/178/16 176/181/16 162/182/16 
f 162/182/16 159/179/16 175/178/16 
f 176/181/16 177/183/16 164/184/16 
f 164/184/16 162/182/16 176/181/16 
f 177/177/17 178/178/17 165/179/17 
f 165/179/17 164/180/17 177/177/17 
f 178/178/17 179/181/17 169/182/17 
f 169/182/17 165/179/17 178/178/17 
f 179/181/17 180/183/17 173/184/17 
f 173/184/17 169/182/17 179/181/17 
f 181/177/18 174/178/18 158/179/18 
f 158/179/18 161/180/18 181/177/18 
f 174/178/18 181/177/18 182/185/18 
f 182/185/18 183/186/18 174/178/18 
f 184/178/17 175/177/17 185/185/17 
f 185/185/17 186/186/17 184/178/17 
f 175/178/16 174/177/16 183/185/16 
f 183/185/16 185/186/16 175/178/16 
f 176/183/18 187/181/18 188/187/18 
f 188/187/18 189/188/18 176/183/18 
f 178/178/17 177/177/17 190/185/17 
f 190/185/17 191/186/17 178/178/17 
f 177/183/16 176/181/16 189/187/16 
f 189/187/16 190/188/16 177/183/16 
f 192/178/16 193/177/16 194/185/16 
f 194/185/16 195/186/16 192/178/16 
f 196/178/17 192/177/17 195/185/17 
f 195/185/17 197/186/17 196/178/17 
f 179/183/16 198/181/16 199/187/16 
f 199/187/16 200/188/16 179/183/16 
f 198/183/18 201/181/18 202/187/18 
f 202/187/18 199/188/18 198/183/18 
f 180/183/17 179/181/17 200/187/17 
f 200/187/17 203/188/17 180/183/17 
f 204/189/7 205/190/7 206/191/7 
f 206/191/7 207/192/7 204/189/7 
f 208/193/31 209/194/31 205/190/31 
f 205/190/31 204/189/31 208/193/31 
f 209/195/32 210/196/32 206/191/32 
f 206/191/32 205/190/32 209/195/32 
f 210/197/33 211/198/33 207/192/33 
f 207/192/33 206/191/33 210/197/33 
f 211/199/34 208/200/34 204/189/34 
f 204/189/34 207/192/34 211/199/34 
f 212/201/35 213/202/35 214/203/36 
f 214/203/36 215/204/36 212/201/35 
f 216/205/37 217/206/37 213/202/35 
f 213/202/35 212/201/35 216/205/37 
f 218/207/38 219/208/38 217/209/37 
f 217/209/37 216/210/37 218/207/38 
f 220/211/39 221/212/39 219/208/38 
f 219/208/38 218/207/38 220/211/39 
f 222/213/40 223/214/40 221/212/39 
f 221/212/39 220/211/39 222/213/40 
f 224/215/41 225/216/41 223/214/40 
f 223/214/40 222/213/40 224/215/41 
f 226/217/42 227/218/42 225/216/41 
f 225/216/41 224/215/41 226/217/42 
f 215/204/36 214/203/36 227/218/42 
f 227/218/42 226/217/42 215/204/36 
f 228/219/32 229/220/43 230/221/17 
f 230/221/17 231/222/32 228/219/32 
f 232/223/19 228/219/32 231/222/32 
f 231/222/32 233/224/44 232/223/19 
f 234/225/33 232/226/19 233/227/44 
f 233/227/44 235/228/33 234/225/33 
f 236/229/18 234/225/33 235/228/33 
f 235/228/33 237/230/45 236/229/18 
f 238/231/34 236/229/18 237/230/45 
f 237/230/45 239/232/34 238/231/34 
f 240/233/24 238/231/34 239/232/34 
f 239/232/34 241/234/16 240/233/24 
f 242/235/31 240/233/24 241/234/16 
f 241/234/16 243/236/31 242/235/31 
f 229/220/43 242/235/31 243/236/31 
f 243/236/31 230/221/17 229/220/43 
f 231/222/46 230/221/46 214/203/46 
f 214/203/46 213/202/46 231/222/46 
f 230/221/47 243/236/47 227/218/47 
f 227/218/47 214/203/47 230/221/47 
f 243/236/48 241/234/48 225/216/48 
f 225/216/48 227/218/48 243/236/48 
f 241/234/49 239/232/49 223/214/49 
f 223/214/49 225/216/49 241/234/49 
f 239/232/50 237/230/50 221/212/50 
f 221/212/50 223/214/50 239/232/50 
f 237/230/51 235/228/51 219/208/51 
f 219/208/51 221/212/51 237/230/51 
f 235/228/52 233/227/52 217/209/52 
f 217/209/52 219/208/52 235/228/52 
f 233/224/53 231/222/53 213/202/53 
f 213/202/53 217/206/53 233/224/53 
f 244/237/54 245/238/55 246/239/56 
f 246/239/56 247/240/54 244/237/54 
f 248/241/57 249/242/58 250/243/58 
f 250/243/58 251/244/57 248/241/57 
f 252/245/59 248/241/57 251/244/57 
f 251/244/57 253/246/60 252/245/59 
f 254/247/61 252/245/59 253/246/60 
f 253/246/60 255/248/61 254/247/61 
f 245/238/55 254/247/61 255/248/61 
f 255/248/61 246/239/56 245/238/55 
f 245/249/62 244/250/62 256/251/62 
f 256/251/62 257/252/62 245/249/62 
f 244/250/63 258/253/63 259/254/63 
f 259/254/63 256/251/63 244/250/63 
f 258/253/64 260/255/64 261/256/64 
f 261/256/64 259/254/64 258/253/64 
f 260/255/65 249/257/65 262/258/65 
f 262/258/65 261/256/65 260/255/65 
f 249/257/66 248/259/66 263/260/66 
f 263/260/66 262/258/66 249/257/66 
# 338 faces

